<svg width="128" height="128" viewBox="0 0 128 128" fill="none" xmlns="http://www.w3.org/2000/svg">
<path fill-rule="evenodd" clip-rule="evenodd" d="M41.2953 18.0624C38.1786 17.7728 34.3498 18.4309 29.7601 21.3596C25.8194 23.8741 23.9276 27.3187 23.2673 31.6241C22.5689 36.1775 23.2831 41.6523 24.8784 47.5322C26.4571 53.3509 28.7599 59.0869 30.8546 64.0771C31.142 64.762 31.4296 65.4421 31.7117 66.1096L31.7118 66.1097C32.4301 67.8088 33.1138 69.4262 33.6741 70.8316C34.409 72.6747 35.1808 74.7464 35.4871 76.5035C35.521 76.698 35.5541 76.904 35.5865 77.1211C32.3255 77.3356 29.5037 77.5435 27.4082 77.7053C26.1832 77.7999 25.2055 77.8789 24.5322 77.9343C24.1955 77.962 23.9349 77.9839 23.7575 77.9989L23.5547 78.0162L23.5254 78.0187C23.3629 77.478 23.0549 76.5988 22.5274 75.2757C22.0155 73.9919 21.4072 72.5528 20.7125 70.9096C20.42 70.2177 20.1122 69.4896 19.7898 68.7216C17.6702 63.6719 15.0985 57.3139 13.2971 50.6744C11.5123 44.0961 10.341 36.7484 11.406 29.8048C12.5091 22.613 16.0298 15.8858 23.3052 11.2435C29.9315 7.01536 36.3942 5.55524 42.4057 6.11392C48.3195 6.66353 53.2997 9.11777 57.1765 11.8998C59.9112 13.8623 62.1964 16.0576 64 18.0546C65.8035 16.0576 68.0887 13.8623 70.8234 11.8998C74.7003 9.11777 79.6804 6.66353 85.5942 6.11392C91.6057 5.55524 98.0684 7.01536 104.695 11.2435C111.97 15.8858 115.491 22.613 116.594 29.8048C117.659 36.7484 116.488 44.0961 114.703 50.6744C112.901 57.3139 110.33 63.6719 108.21 68.7216C107.888 69.4896 107.58 70.2176 107.287 70.9095C106.593 72.5528 105.984 73.9918 105.473 75.2757C104.945 76.5988 104.637 77.478 104.475 78.0187L104.445 78.0162L104.242 77.9989C104.065 77.9839 103.804 77.962 103.468 77.9343C102.795 77.8789 101.817 77.7999 100.592 77.7053C98.4962 77.5435 95.6743 77.3356 92.4133 77.121C92.4457 76.9043 92.4789 76.6983 92.5128 76.5035C92.8191 74.7464 93.591 72.6747 94.3258 70.8316C94.8861 69.4262 95.5699 67.8088 96.2881 66.1098C96.5703 65.4422 96.8579 64.762 97.1454 64.0771C99.2401 59.0869 101.543 53.3509 103.122 47.5322C104.717 41.6523 105.431 36.1775 104.733 31.6241C104.072 27.3187 102.181 23.8741 98.2399 21.3596C93.6501 18.4309 89.8214 17.7728 86.7047 18.0624C83.4904 18.3612 80.5057 19.7218 77.8197 21.6493C75.128 23.5809 72.9375 25.9404 71.3959 27.8791C70.6356 28.8353 70.0592 29.656 69.6831 30.2205C69.4957 30.5018 69.3597 30.717 69.2771 30.8505C69.2359 30.9171 69.2082 30.9631 69.1941 30.9866L69.186 31.0002L69.1856 31.001L69.1835 31.0045L64 39.9666L58.8164 31.0045L58.8144 31.001L58.8139 31.0002L58.8058 30.9866C58.7918 30.9631 58.764 30.9171 58.7228 30.8505C58.6403 30.717 58.5043 30.5018 58.3168 30.2205C57.9408 29.656 57.3643 28.8353 56.604 27.8791C55.0624 25.9404 52.872 23.5809 50.1802 21.6493C47.4943 19.7218 44.5096 18.3612 41.2953 18.0624ZM36.4746 89.0886C36.6212 92.6161 36.7274 96.434 36.8065 100.134C37.3808 100.094 37.9697 100.054 38.5715 100.013C46.1022 99.5107 55.7597 99 64 99C72.2403 99 81.8978 99.5107 89.4284 100.013C90.027 100.053 90.6129 100.093 91.1843 100.133C91.263 96.4519 91.3695 92.6293 91.5179 89.0881C94.7709 89.3016 97.5858 89.5089 99.6678 89.6697C100.871 89.7626 101.828 89.8399 102.483 89.8938C102.81 89.9208 103.062 89.9419 103.231 89.9562L103.421 89.9724L103.468 89.9764L103.479 89.9774L103.482 89.9776L103.482 89.9776L103.501 89.7546C103.335 93.8178 103.213 98.4653 103.129 103.059C103.037 108.056 102.991 112.794 102.968 116.285C102.956 118.03 102.95 119.461 102.948 120.455C102.946 120.952 102.945 121.339 102.945 121.602L102.945 121.901L102.945 121.976L102.945 121.994V121.999V122C102.945 122 102.945 122 96.9447 122C90.9447 122 90.9447 122 90.9447 121.999V121.998V121.993L90.9447 121.972L90.9447 121.893L90.9451 121.586C90.9454 121.317 90.9461 120.924 90.9476 120.42C90.9505 119.413 90.9563 117.967 90.9679 116.206C90.9759 114.991 90.9867 113.625 91.0012 112.15C90.2377 112.096 89.4455 112.041 88.6292 111.987C81.1791 111.489 71.8366 111 64 111C56.1634 111 46.8209 111.489 39.3707 111.987C38.5519 112.041 37.7573 112.096 36.9915 112.15C37.0097 113.948 37.0227 115.603 37.032 117.051C37.0436 118.859 37.0494 120.344 37.0523 121.378C37.0538 121.895 37.0545 122.299 37.0549 122.575L37.0552 122.89L37.0552 122.971L37.0553 122.992V122.998V122.999C37.0553 123 37.0553 123 31.0553 123C25.0553 123 25.0553 123 25.0553 123V122.999L25.0553 122.994L25.0552 122.975L25.0552 122.898L25.0549 122.591C25.0545 122.32 25.0538 121.922 25.0524 121.411C25.0495 120.39 25.0438 118.919 25.0323 117.128C25.0093 113.543 24.9632 108.679 24.8713 103.557C24.7845 98.7154 24.6578 93.8209 24.4843 89.5883C24.518 89.9776 24.518 89.9776 24.518 89.9776L24.5184 89.9776L24.5208 89.9774L24.5319 89.9764L24.5788 89.9724L24.7691 89.9562C24.938 89.9419 25.1897 89.9208 25.5171 89.8938C26.1719 89.8399 27.1293 89.7626 28.3322 89.6697C30.4126 89.509 33.2247 89.3019 36.4746 89.0886Z" fill="#E60039"/>
</svg>
